<svg xmlns="http://www.w3.org/2000/svg" width="838.391" height="354.447" viewBox="0 0 838.391 354.447">
  <g id="그룹_2" data-name="그룹 2" transform="translate(0.001 0.005)">
    <g id="그룹_1" data-name="그룹 1">
      <path id="패스_1" data-name="패스 1" d="M435.58,159.3a125.2,125.2,0,0,0,8.9,19.55c2,3.61,4.49,8.5,8.76,4.78,6-5.26,11.82-10.71,18.09-15.68a192,192,0,0,1,28.42-18.41c6.2-3.33,13.31-5.92,19.12-9.92,3.91-2.68,2.8-8.3,2.08-12.3-1.63-9.08-4.42-18-7.09-26.77-3.58-11.86-7.32-23.68-10.77-35.58-3.21-11.1-6.21-22.25-9.57-33.3-1.88-6.21-3.5-14-7.57-19.29-1.27-1.64-2.88-2.59-5-2.11-5.36,1.24-10.82,4.09-15.81,6.38a200.632,200.632,0,0,0-24.36,13.47c-6,3.85-12.37,7.53-17.91,12.05s-10.71,9.36-15.81,14.29c-2.26,2.19-6.18,4.81-6,8.34s1.64,7,2.7,10.16c8.69,26.18,19.89,51.49,29.33,77.4.83,2.3,1.66,4.61,2.44,6.94,1.09,3.25,6.09,1.45,5-1.79-8.09-24.13-18.31-47.54-27.16-71.4-1.79-4.82-3.56-9.65-5.13-14.55-.54-1.7-1.08-3.39-1.5-5.11-.2-.79-.15-.68-.29-1.33a4.062,4.062,0,0,0-.09-.7c-.18-.54.13,0,0,0,.35,0-1,1,.07.21a22.524,22.524,0,0,0,2-2.06c2.08-2.09,4.22-4.13,6.37-6.15,4.5-4.22,9.06-8.65,14.13-12.2,13.43-9.4,27.64-18.23,42.74-24.64,2.43-1,4.89-2,7.36-2.95.31-.11,3.66-1.32,3.66-1.34s-1.2.19-1.12-.06c-.2.64-.13-.83.08.2.27,1.38,2,3.78,2.65,5.39,3.17,8,5.41,16.47,7.78,24.77,6.13,21.51,12.8,42.85,19.05,64.32,2.09,7.18,4.59,14.68,5.13,22.18a18.141,18.141,0,0,1,0,2.66c0,.61.15.16-.23.42a51.336,51.336,0,0,1-6.26,3.32c-17.13,8.6-33.33,18-48,30.5-2.9,2.47-5.74,5-8.56,7.58-.32.29-4.28,3.35-4.21,3.72s2.67-.19,2.66,0c0-.17-.6-.81-.71-1-.74-1.13-1.42-2.32-2.07-3.5-1.71-3.13-3.25-6.35-4.71-9.6-1.29-2.86-2.54-5.76-3.56-8.73C439.47,154.27,434.47,156.07,435.58,159.3Z" transform="translate(-7.38 -10.15)" fill="#3e3e3e"/>
      <path id="패스_2" data-name="패스 2" d="M404.08,64.92C395.63,57,384.55,52,373.73,48.21a169.38,169.38,0,0,0-37.66-8.56c-9.51-1-20.15-1.85-29.41,1.13-4.88,1.56-9.33,5-8.37,10.65,3.52,20.4,9.26,40.69,14.88,60.58,4.36,15.38,9.11,30.65,14.63,45.65,2.69,7.3,5.56,14.53,8.73,21.63,1,2.2,2.19,7.07,4.5,8.17,1.16.56,2.55.17,3.73-.07,15.11-3.11,29.85-7,45.31-8.24a143.78,143.78,0,0,1,53.45,6.37c.85.26,1.7.53,2.54.84,1.16.43,1.34,1,.35-.3-.08-.87-.16-1.74-.23-2.61l-.18.32,2.18-1.54,1.45.83c-.05,1.07-.1,2.14-.14,3.21l.19-.23c2.21-2.61-1.85-6-4.07-3.41l-.19.22a2.67,2.67,0,0,0-.15,3.21c1.73,2,4.42,2,5.75-.41a2.6,2.6,0,0,0-.22-2.61,5.92,5.92,0,0,0-3-1.7c-2.48-.87-5-1.59-7.54-2.27a165.118,165.118,0,0,0-24.12-4.66c-18.45-2.16-36.79-.08-54.87,3.77-5.68,1.22-11.29,2.73-17,3.93a6.5,6.5,0,0,0-1.64.3h-.21c-.9,0-.29.34,1.83.92a12.449,12.449,0,0,0-1.08-2.31q-2.34-5-4.44-10.08c-5.9-14.11-10.84-28.61-15.36-43.21-7.19-23.29-13.38-47-18.52-70.79-.46-2.13-1-4.29-1.34-6.45a2.5,2.5,0,0,1,1-2.76c2.2-1.94,5.64-2.55,8.43-3a72.739,72.739,0,0,1,14-.56,158.39,158.39,0,0,1,39.85,7.22c12,3.75,24.61,8.81,33.93,17.54,2.5,2.34,5.9-1.74,3.41-4.07Z" transform="translate(-7.38 -10.15)" fill="#3e3e3e"/>
      <path id="패스_3" data-name="패스 3" d="M298.1,50.1c-3.07,1-6.17,1.89-9.23,2.89-2.46.8-4.72,1.94-4.53,4.92.21,3.4,1.66,7.14,2.45,10.46q2.94,12.28,6,24.54c4.58,18.28,9.37,36.53,14.84,54.57,4.3,14.18,8.66,28.82,15.66,42,1.83,3.43,4.09,7.48,7.64,9.4a37.712,37.712,0,0,0,8.29,3,7.28,7.28,0,0,0,4.52-.15c3.51-1,7-2.14,10.5-3.16,29.7-8.65,61.17-14.86,92-9.26,3.36.61,4.27-4.63.9-5.24-25.41-4.6-51.33-1.4-76.23,4.56-6.41,1.53-12.76,3.26-19.08,5.11-2.92.85-5.9,1.62-8.76,2.64-1.95.69-2.95.33-4.92-.35s-4.56-1.55-5.52-2.36a16.45,16.45,0,0,1-3-3.81c-6.88-10.78-10.64-24-14.49-36C309.68,136.7,305,119.39,300.54,102Q297,88.29,293.69,74.47q-1.45-6-2.88-12L290.23,60c-.09-.39-.16-.8-.27-1.18-.18-.59,0-1.25-.36-.82-.68.86,1.34-.11,1.64-.2l2.89-.91,5.77-1.81c3.28-1,1.47-6-1.79-5Z" transform="translate(-7.38 -10.15)" fill="#3e3e3e"/>
      <path id="패스_4" data-name="패스 4" d="M285.63,62.54l-7.92,3.94a2.76,2.76,0,0,0-1.61,3.4c10.49,35.56,21,71.16,34.21,105.83q4.9,12.82,10.32,25.45c2.67,6.18,5.05,16.11,13.78,13.69s17.23-5.94,25.93-8.53,17.31-4.9,26.07-7a461.281,461.281,0,0,1,61-10.07c3.41-.32,2.95-5.62-.46-5.29a468.61,468.61,0,0,0-101.27,21.36c-3.87,1.29-7.7,2.78-11.59,4-3,.94-3.95.1-5.18-2.57-1-2.08-1.87-4.18-2.78-6.28q-5.47-12.6-10.37-25.44c-6.26-16.33-11.92-32.89-17.24-49.55-6.09-19.06-11.76-38.25-17.42-57.44l-1.6,3.39,7.92-3.94c3-1.51,1.26-6.52-1.79-5Z" transform="translate(-7.38 -10.15)" fill="#3e3e3e"/>
      <path id="패스_5" data-name="패스 5" d="M282.32,87.23l-8.39,4.46a2.68,2.68,0,0,0-1,3.09L323.16,226a2.69,2.69,0,0,0,3.39,1.61c35.31-12.22,70.88-24.09,106.8-34.39,4.93-1.42,10.22-3.4,15.15-3.73,3.42-.23,2.95-5.52-.46-5.29-4.38.3-8.87,1.88-13.07,3.05-8,2.22-15.83,4.62-23.71,7.06-19.92,6.17-39.75,12.62-59.55,19.19q-13.5,4.49-26.95,9.11l3.4,1.61L277.93,93l-1,3.08,8.39-4.46c3-1.61,0-6-3-4.38Z" transform="translate(-7.38 -10.15)" fill="#3e3e3e"/>
      <path id="패스_6" data-name="패스 6" d="M503.85,74.49a183.8,183.8,0,0,1,21.95-2.22c1.45-.06,2.94-.48,3.73.67s1.06,4.1,1.41,5.46q1.45,5.73,2.89,11.44,5.73,22.91,11.11,45.87,2.7,11.49,5.3,23c.38,1.7.77,3.41,1.15,5.11.28,1.26,1.42,3.91,1,5.1-1,2.94-9,2-11.39,2.13-14.84.75-29.67,1.59-44.46,3.07a377.389,377.389,0,0,0-48.2,7.77c-3.33.77-1.51,5.76,1.79,5,32.29-7.51,65.31-9,98.29-10.88,2.87-.16,6-.58,7.93-3s1.22-5.56.59-8.4q-2.85-12.79-5.83-25.56-5.94-25.54-12.31-51-1.76-7-3.54-14c-.79-3.12-1.47-6.38-5.14-7.07s-8.33.1-12.16.41c-4.89.39-9.75,1-14.6,1.79-3.36.53-2.92,5.83.46,5.29Z" transform="translate(-7.38 -10.15)" fill="#3e3e3e"/>
      <path id="패스_7" data-name="패스 7" d="M539.87,94.33l9.16.31-2.73-1.75a511,511,0,0,1,15.18,98.19l2.41-2.87c-9.47.16-19-2.31-28.38-3.51s-18.79-2.08-28.24-2.62a406.7,406.7,0,0,0-56.07.69c-3.41.28-2.95,5.57.47,5.29a398.232,398.232,0,0,1,57.28-.59q14.16.9,28.22,2.8c9,1.22,18.05,3.39,27.19,3.23a2.69,2.69,0,0,0,2.41-2.88A517.569,517.569,0,0,0,551.3,91.1a2.7,2.7,0,0,0-2.73-1.75L539.41,89c-3.41-.12-2.91,5.17.47,5.29Z" transform="translate(-7.38 -10.15)" fill="#3e3e3e"/>
      <path id="패스_8" data-name="패스 8" d="M452.59,190.1q52.68,11.66,105,25a2.65,2.65,0,0,0,3.07-2.17,86.284,86.284,0,0,0-1.09-20.55c-.59-3.34-5.88-2.91-5.29.47A80,80,0,0,1,555.39,212l3.07-2.17q-52.29-13.32-105-25c-3.34-.74-4.23,4.5-.9,5.24Z" transform="translate(-7.38 -10.15)" fill="#3e3e3e"/>
      <path id="패스_9" data-name="패스 9" d="M449.77,190.51a447.31,447.31,0,0,1,53.43,15.94q12.8,4.73,25.26,10.2c8,3.52,16.07,7.07,24.71,8.82a2.71,2.71,0,0,0,3.07-2.17,31.759,31.759,0,0,0,.19-11.46c-.55-3.35-5.85-2.91-5.29.47A27.61,27.61,0,0,1,551,222.4l3.07-2.17c-9-1.82-17.29-5.78-25.68-9.41s-16.8-7-25.36-10.07a458.387,458.387,0,0,0-52.37-15.47c-3.33-.77-4.22,4.46-.89,5.23Z" transform="translate(-7.38 -10.15)" fill="#3e3e3e"/>
      <path id="패스_10" data-name="패스 10" d="M418.87,73.67a153.5,153.5,0,0,1,53-33.86,1.33,1.33,0,0,0-.89-2.5A156.74,156.74,0,0,0,416.84,72c-1.22,1.19.82,2.89,2,1.71Z" transform="translate(-7.38 -10.15)" fill="#3e3e3e"/>
      <path id="패스_11" data-name="패스 11" d="M422,86.5a199.6,199.6,0,0,1,54.86-32.75c1.59-.63.7-3.13-.89-2.5a202,202,0,0,0-55.48,33.06c-1.3,1.09.2,3.29,1.51,2.19Z" transform="translate(-7.38 -10.15)" fill="#3e3e3e"/>
      <path id="패스_12" data-name="패스 12" d="M427.73,100A235.48,235.48,0,0,1,477,67.27c1.52-.75.63-3.25-.9-2.5a238.391,238.391,0,0,0-49.89,33c-1.29,1.1.21,3.3,1.51,2.19Z" transform="translate(-7.38 -10.15)" fill="#3e3e3e"/>
      <path id="패스_13" data-name="패스 13" d="M434.65,118.2a166.369,166.369,0,0,1,48.59-34c1.54-.71.65-3.22-.9-2.5a170.079,170.079,0,0,0-49.72,34.78c-1.21,1.21.83,2.92,2,1.71Z" transform="translate(-7.38 -10.15)" fill="#3e3e3e"/>
      <path id="패스_14" data-name="패스 14" d="M443.14,133a265.852,265.852,0,0,1,47.39-30.76c1.51-.76.63-3.27-.89-2.5a269,269,0,0,0-48,31.07c-1.33,1.07.17,3.26,1.51,2.19Z" transform="translate(-7.38 -10.15)" fill="#3e3e3e"/>
      <path id="패스_15" data-name="패스 15" d="M449.56,151A364.178,364.178,0,0,1,497,120.49c1.51-.81,0-3-1.51-2.18a363.337,363.337,0,0,0-47.44,30.52c-1.36,1,.14,3.22,1.51,2.19Z" transform="translate(-7.38 -10.15)" fill="#3e3e3e"/>
      <path id="패스_16" data-name="패스 16" d="M330,71.67a120.65,120.65,0,0,1,66,7.27c1.58.65,2.69-1.76,1.11-2.41A123.12,123.12,0,0,0,329.74,69c-1.68.28-1.46,2.93.23,2.65Z" transform="translate(-7.38 -10.15)" fill="#3e3e3e"/>
      <path id="패스_17" data-name="패스 17" d="M336.3,92a125.83,125.83,0,0,1,64.42.33c1.65.44,2.09-2.18.45-2.62a128.47,128.47,0,0,0-65.76-.21C333.75,89.93,334.66,92.42,336.3,92Z" transform="translate(-7.38 -10.15)" fill="#3e3e3e"/>
      <path id="패스_18" data-name="패스 18" d="M342.09,113.55a103.87,103.87,0,0,1,64.8-2.35c1.64.48,2.08-2.14.45-2.62a106.31,106.31,0,0,0-66.15,2.47,1.33,1.33,0,0,0,.9,2.5Z" transform="translate(-7.38 -10.15)" fill="#3e3e3e"/>
      <path id="패스_19" data-name="패스 19" d="M353,132.24c20.24-3.52,41.65-7.09,61.55,0,1.6.57,2.72-1.84,1.11-2.42-20.4-7.25-42.12-3.83-62.88-.21-1.68.29-1.46,2.94.23,2.65Z" transform="translate(-7.38 -10.15)" fill="#3e3e3e"/>
      <path id="패스_20" data-name="패스 20" d="M353.62,152.32a128.15,128.15,0,0,1,65.71-3.55c1.68.35,2.13-2.27.45-2.62a130.79,130.79,0,0,0-67,3.67c-1.63.53-.73,3,.89,2.5Z" transform="translate(-7.38 -10.15)" fill="#3e3e3e"/>
      <path id="패스_21" data-name="패스 21" d="M520.78,89.21a23.43,23.43,0,0,0-10.42,1.86,1.33,1.33,0,0,0,.9,2.5,20.62,20.62,0,0,1,9.07-1.74,1.36,1.36,0,0,0,1.53-1.08A1.34,1.34,0,0,0,520.78,89.21Z" transform="translate(-7.38 -10.15)" fill="#3e3e3e"/>
      <path id="패스_22" data-name="패스 22" d="M524.55,100.6l-11.1,2.1a1.38,1.38,0,0,0-1.21,1.44,1.34,1.34,0,0,0,1.44,1.21l11.1-2.1a1.37,1.37,0,0,0,1.21-1.44A1.34,1.34,0,0,0,524.55,100.6Z" transform="translate(-7.38 -10.15)" fill="#3e3e3e"/>
      <path id="패스_23" data-name="패스 23" d="M515.85,117.07l8.38-1.52a1.33,1.33,0,0,0-.23-2.65l-8.38,1.52a1.37,1.37,0,0,0-1.21,1.44A1.34,1.34,0,0,0,515.85,117.07Z" transform="translate(-7.38 -10.15)" fill="#3e3e3e"/>
      <path id="패스_24" data-name="패스 24" d="M519.68,130.24l7.8-1.41a1.37,1.37,0,0,0,1.21-1.44,1.34,1.34,0,0,0-1.44-1.21l-7.79,1.41a1.37,1.37,0,0,0-1.22,1.44A1.34,1.34,0,0,0,519.68,130.24Z" transform="translate(-7.38 -10.15)" fill="#3e3e3e"/>
      <path id="패스_25" data-name="패스 25" d="M472.67,165.28A148.08,148.08,0,0,1,524,153.65c1.71-.07,1.47-2.72-.24-2.64a150.2,150.2,0,0,0-52,11.76c-1.57.67-.68,3.17.89,2.5Z" transform="translate(-7.38 -10.15)" fill="#3e3e3e"/>
    </g>
    <g id="그룹_1-2" data-name="그룹 1">
      <path id="패스_1-2" data-name="패스 1" d="M9.18,293.53a7.25,7.25,0,0,1-1.8-4.92q0-7.31,12.37-13.63a57.53,57.53,0,0,1,26.52-6.32q21.81,0,21.8,13.88A15.66,15.66,0,0,1,63.39,294q-4.68,4.72-16.32,9.82,10.5,24,18.1,23.95,4,0,8.57-5.62a8.79,8.79,0,0,1,.22,1.54q0,3.69-4.35,7.67t-8.39,4q-10.29,0-21.93-28a15.67,15.67,0,0,1-4.22.66,4.1,4.1,0,0,1-1.72-.35q1.63-8.29,8.27-8.3a12.771,12.771,0,0,1,3.25.52q14.42-4.83,14.41-16,0-4.12-4.11-6.79a19,19,0,0,0-10.48-2.65,43.18,43.18,0,0,0-20.78,5.38Q13.94,285.1,9.18,293.53ZM25,339.58a18.34,18.34,0,0,1-8.12,2.25c-1.53,0-2.29-.62-2.29-1.85a40.289,40.289,0,0,1,1-5.49L24,292a30.59,30.59,0,0,0,.75-5.32,4.32,4.32,0,0,0-1.06-2.81q5.85-2.2,8.13-2.2c1.85,0,2.77,1.06,2.77,3.16,0,.5-.48,3.07-1.45,7.69L25.4,331.54a33.35,33.35,0,0,0-.83,5.76,7.71,7.71,0,0,0,.43,2.28Z" transform="translate(-7.38 -10.15)" fill="#3d3d3d"/>
      <path id="패스_2-2" data-name="패스 2" d="M92.59,317q0,12.84,10.9,12.84,9.45,0,20.83-9a90.8,90.8,0,0,0,20.52-23.67l3.74,2.06a81.53,81.53,0,0,1-22.39,26.61q-13.78,10.55-26.13,10.54-7.91,0-12.5-5.1T83,317.39a31,31,0,0,1,8.3-21.79q8.33-9.06,20.06-9.06,5.67,0,9.07,2.86a9.46,9.46,0,0,1,3.41,7.64q0,7.86-9.47,13.92A39.46,39.46,0,0,1,92.59,317Zm.35-4.22a28.83,28.83,0,0,0,15.76-5.26q6.57-4.79,6.57-11.05,0-5.61-5-5.61-6,0-11,6.4a31.26,31.26,0,0,0-6.33,15.55Z" transform="translate(-7.38 -10.15)" fill="#3d3d3d"/>
      <path id="패스_3-2" data-name="패스 3" d="M174.07,308.47a71.17,71.17,0,0,1-13.88,19.8q-8.25,8.14-14.37,8.15a8.6,8.6,0,0,1-7.46-4.15q-2.79-4.15-2.79-11A37.73,37.73,0,0,1,143.91,297q8.33-10.46,19.29-10.46,6.65,0,14.38,4.13,1.14-4.08,9.32-4.08h1.71a29.84,29.84,0,0,0-3.82,10.46l-.75,3.73a73.689,73.689,0,0,0-1.27,14.59q0,9.63,4.48,9.63,4.75,0,13-7.93a114.16,114.16,0,0,0,16.19-20.2l3.43,2.38a98,98,0,0,1-18.59,24.19q-10.46,9.69-18,9.69-9.5,0-9.5-15.82Q173.8,314,174.07,308.47Zm2.06-10.5q-9.24-6-15.36-6-6.65,0-11.48,8.06t-4.84,19.14q0,8.88,5.81,8.88,6.28,0,24.07-27.6.22-.38,1.8-2.45Z" transform="translate(-7.38 -10.15)" fill="#3d3d3d"/>
      <path id="패스_4-2" data-name="패스 4" d="M244.78,309.61q-6.85,12.36-14.35,19.58t-13.38,7.23a8.57,8.57,0,0,1-7.47-4.11q-2.78-4.11-2.77-11A38,38,0,0,1,215.07,297q8.27-10.44,19.2-10.44,6.55,0,14.28,4.18l4.71-23.65a33.131,33.131,0,0,1-6.42.8q-3.87,0-5.67-1.84t-2.9-6.87q3.16,2.16,9.71,2.16a42.35,42.35,0,0,0,15.69-3l-9.58,48.16a71.89,71.89,0,0,0-1.62,13.76q0,7.56,4.3,7.56t14-9.89a110.749,110.749,0,0,0,16.37-20.7l3.61,2.29a106,106,0,0,1-19.54,25.62q-11.72,11.3-18.7,11.29-8.87,0-8.87-14.24a76.928,76.928,0,0,1,1.14-12.58ZM247.1,298q-9.14-6-15.2-6-6.6,0-11.4,8.08a36.69,36.69,0,0,0-4.82,19.12q0,8.88,5.8,8.88,6.24,0,24-27.6C245.68,300.11,246.23,299.29,247.1,298Z" transform="translate(-7.38 -10.15)" fill="#3d3d3d"/>
      <path id="패스_5-2" data-name="패스 5" d="M330.69,299.36q-9.93,17.42-20.08,27.24t-18.24,9.82a10.35,10.35,0,0,1-7.93-3.21,11.82,11.82,0,0,1-3-8.44,35.75,35.75,0,0,1,.87-6.28l1-4.84q2.16-10.45,2.15-14.68a5.71,5.71,0,0,0-1.49-4.09,46.785,46.785,0,0,1,7.16-1.31q3.26,0,3.26,4.56a53.088,53.088,0,0,1-1.28,9.7l-1.71,8.56a53.3,53.3,0,0,0-1.28,8q0,5.44,4.62,5.44,5.49,0,14.63-9.24A125.589,125.589,0,0,0,327,297.21Zm-39.11-22.13h.61c2-.09,4.79-1.08,8.46-3a37.531,37.531,0,0,0,8.64-5.79,21.43,21.43,0,0,1-6.86,10.16q-7.47,6.24-10.11,6.24c-1.17,0-1.75-.72-1.75-2.15a14.36,14.36,0,0,1,1.01-5.46Z" transform="translate(-7.38 -10.15)" fill="#3d3d3d"/>
      <path id="패스_6-2" data-name="패스 6" d="M333.06,319.55q15.6-33,28-33,9.7,0,9.71,19.34l.09,5.32q0,9.23.94,12.76t3.45,3.54q3.78,0,8.59-6t15.67-24.21l3.69,2.15q-9.66,18.24-17.31,27.07t-13.71,8.83q-5.58,0-7.85-5.4t-2.26-18.72v-3.78c0-4.81-.31-8.18-.93-10.13s-1.68-2.93-3.21-2.93q-5.79,0-18.67,23.16-3.17,5.67-4.09,7.3c-2.25,3.92-3.38,6.77-3.38,8.52a4,4,0,0,0,.57,2,11.781,11.781,0,0,1-4.31,1.05q-4.44,0-4.44-4.92,0-1.41,1.15-12.66l1-9.53a93.207,93.207,0,0,0,.66-9.41,11.57,11.57,0,0,0-2.11-7.34c.62-.2,1.64-.55,3.08-1.05a13.781,13.781,0,0,1,4.35-1c2.28,0,3.43,1.67,3.43,5q0,2.64-.66,9.05c-.09.94-.18,1.83-.27,2.68Z" transform="translate(-7.38 -10.15)" fill="#3d3d3d"/>
      <path id="패스_7-2" data-name="패스 7" d="M427,308.91a45.79,45.79,0,0,1-12.35,15.43q-8.09,6.63-14.5,6.63a10.22,10.22,0,0,1-7.83-3.25,11.89,11.89,0,0,1-3-8.44q0-12.12,9.23-22.43t20.13-10.31a27.6,27.6,0,0,1,12.13,3.21q.87-4.22,2.54-5.32t8.49-1.8q-3.43,6.9-6.55,32.87l-.57,4.48q18.85-11.33,29.09-23.15l3.69,2.32q-9.67,12.62-33.09,27.51-.13,1.72-.18,2.55-.66,11-2.33,16.26a26.45,26.45,0,0,1-6,9.93,27.21,27.21,0,0,1-20.74,9.19q-6.54,0-10.63-3.1a9.61,9.61,0,0,1-4.09-8,11.6,11.6,0,0,1,3.54-8.39q3.54-3.6,13.29-8.79,6.47-3.39,18.24-10.11Zm2.24-11.43q-5.72-6.06-12.57-6.06-6.51,0-12.26,8.15a29.55,29.55,0,0,0-5.76,17.34q0,6.49,4.79,6.5t12.37-7.75a80.41,80.41,0,0,0,13.45-18.18ZM425,332q-2.55,1.53-10.33,5.88-15.19,8.58-15.2,15.12a5.79,5.79,0,0,0,2.46,4.79,10,10,0,0,0,6.28,1.89Q425,359.71,425,332Z" transform="translate(-7.38 -10.15)" fill="#3d3d3d"/>
      <path id="패스_8-2" data-name="패스 8" d="M518.29,275l-7.73,38.92q-4.14,20.64-13.27,30.22t-19.43,9.57a17.79,17.79,0,0,1-9.84-2.92c-3-1.95-4.53-4.06-4.53-6.35q0-4.17,5.93-7.69a10.55,10.55,0,0,0,3.15,8,11.79,11.79,0,0,0,8.5,3q7.86,0,11.89-6t7.31-22.57l8.53-42.88a59.611,59.611,0,0,1-7.91,1.22q-5.62,0-6.29-7.08a9.34,9.34,0,0,0,4.66,1.1,64.733,64.733,0,0,0,11.47-1.67L515,269a49,49,0,0,1,9.84-1.19c3.22,0,5.51.65,6.85,1.94s2.27,3.71,2.77,7.25a16.21,16.21,0,0,0-9.23-2.64,46.413,46.413,0,0,0-6.94.64Z" transform="translate(-7.38 -10.15)" fill="#3d3d3d"/>
      <path id="패스_9-2" data-name="패스 9" d="M574.06,308.25a79.548,79.548,0,0,1-13.54,20.35q-7.47,7.81-13.4,7.82a9.91,9.91,0,0,1-7.78-3.38,12.77,12.77,0,0,1-3-8.78q0-6.94,4.66-25.47a36.841,36.841,0,0,0,1.28-6.32,6,6,0,0,0-.84-2.86h6.06q3.91,0,3.92,3,0,1.89-2.55,10.84c-.53,1.78-.87,3-1,3.68l-.66,2.67a57.1,57.1,0,0,0-1.94,12.2q0,6.5,4.49,6.49,7.34,0,18.63-18.16,9.23-14.78,9.23-21a3.42,3.42,0,0,0-.53-1.76,23.451,23.451,0,0,1,6.11-1q3.87,0,3.87,2.37a5.9,5.9,0,0,1-.36,1.67c-.11.44-.39,1.5-.83,3.2-.06.32-.35,1.5-.88,3.55-.38,1.43-.66,2.57-.83,3.42l-.44,2.1a69,69,0,0,0-1.45,13.55q0,9.64,4.65,9.65,10.29,0,26.11-28.94l3.69,2.19q-18,34.67-33,34.66-10.07,0-10.06-17.45C573.71,314.31,573.82,311.56,574.06,308.25Z" transform="translate(-7.38 -10.15)" fill="#3d3d3d"/>
      <path id="패스_10-2" data-name="패스 10" d="M615.23,335a12.161,12.161,0,0,1-4.81,1.41q-4.5,0-4.5-3.95a75.738,75.738,0,0,1,1.58-10.07l2.2-10.94a79.9,79.9,0,0,0,2-14.46,6.34,6.34,0,0,0-1.45-4.26,24.2,24.2,0,0,1,7.51-1.58q3.08,0,3.08,3.91,0,2.42-2.18,12.7l-2.49,12.79q8.31-16.14,16.71-25.07t15.26-8.95a6.51,6.51,0,0,1,4.17,1.39,4.14,4.14,0,0,1,1.75,3.36q0,3.07-6.68,8.17-1.67-3.46-4.74-3.47-5.56,0-14.22,11.87a110.211,110.211,0,0,0-9.3,15.22q-3.95,7.85-3.95,11.19Z" transform="translate(-7.38 -10.15)" fill="#3d3d3d"/>
      <path id="패스_11-2" data-name="패스 11" d="M667.79,319.55q15.6-33,28-33,9.7,0,9.71,19.34l.09,5.32q0,9.23,1,12.76T710,327.5q3.78,0,8.6-6t15.66-24.21l3.69,2.15q-9.66,18.24-17.31,27.07T707,335.32q-5.58,0-7.85-5.4t-2.26-18.72v-3.78c0-4.81-.31-8.18-.93-10.13s-1.68-2.93-3.2-2.93q-5.8,0-18.68,23.16-3.16,5.67-4.09,7.3c-2.25,3.92-3.38,6.77-3.38,8.52a4,4,0,0,0,.57,2,11.729,11.729,0,0,1-4.31,1.05q-4.44,0-4.44-4.92,0-1.41,1.15-12.66l1-9.53a93.215,93.215,0,0,0,.66-9.41,11.57,11.57,0,0,0-2.11-7.34c.62-.2,1.64-.55,3.08-1.05a13.781,13.781,0,0,1,4.35-1q3.44,0,3.43,5,0,2.64-.66,9.05c-.09.94-.18,1.83-.26,2.68Z" transform="translate(-7.38 -10.15)" fill="#3d3d3d"/>
      <path id="패스_12-2" data-name="패스 12" d="M763.51,308.47a71.189,71.189,0,0,1-13.89,19.8q-8.25,8.14-14.36,8.15a8.6,8.6,0,0,1-7.46-4.15q-2.79-4.15-2.79-11A37.73,37.73,0,0,1,733.35,297q8.32-10.46,19.29-10.46,6.63,0,14.38,4.13,1.14-4.08,9.32-4.08h1.71a29.84,29.84,0,0,0-3.82,10.46l-.75,3.73a73.677,73.677,0,0,0-1.27,14.59q0,9.63,4.48,9.63,4.74,0,13-7.93a113.73,113.73,0,0,0,16.2-20.2l3.43,2.38a98,98,0,0,1-18.59,24.19q-10.46,9.69-18,9.69-9.48,0-9.49-15.82Q763.24,314,763.51,308.47Zm2.06-10.5q-9.24-6-15.36-6-6.65,0-11.48,8.06t-4.84,19.14q0,8.88,5.81,8.88,6.28,0,24.07-27.6c.14-.26.75-1.08,1.8-2.45Z" transform="translate(-7.38 -10.15)" fill="#3d3d3d"/>
      <path id="패스_13-2" data-name="패스 13" d="M845.77,299.51q-9.09,17.26-18.28,27.09t-16.26,9.82a10.09,10.09,0,0,1-8.31-4q-3.15-4-3.16-10.39a56,56,0,0,1,1.32-10.2l8.74-44a19.4,19.4,0,0,1-3,.27q-10.11,0-10.11-8.44v-1a23.721,23.721,0,0,0,11.91,3,20.47,20.47,0,0,0,11.6-3.3L810,311.2a63.681,63.681,0,0,0-1.36,9.8q0,7.42,5.45,7.42,5.28,0,10.61-5.95t17.52-25.38Z" transform="translate(-7.38 -10.15)" fill="#3d3d3d"/>
    </g>
  </g>
</svg>
